<svg width="300" height="300" viewBox="0 0 300 300" fill="none" xmlns="http://www.w3.org/2000/svg">
<g clip-path="url(#clip0_1_2)">
<path fill-rule="evenodd" clip-rule="evenodd" d="M300 149.995C300 232.842 232.842 299.99 150.005 299.99C67.1679 299.99 0 232.842 0 149.995C0 67.1477 67.1578 0 149.995 0C201.079 0 246.205 25.542 273.295 64.548C290.127 88.7952 300 118.242 300 149.995Z" fill="#BE1E2D"/>
<path fill-rule="evenodd" clip-rule="evenodd" d="M225.306 75.3212C266.669 116.684 266.669 183.771 225.306 225.023C191.702 258.627 141.235 264.929 101.329 244.071L47.0985 254.136L56.0711 198.216C35.8094 158.421 42.243 108.561 75.483 75.3212C116.846 33.9481 183.933 33.9481 225.306 75.3212Z" fill="white"/>
<path d="M115.925 129.966C126.216 129.966 134.558 121.624 134.558 111.333C134.558 101.042 126.216 92.6999 115.925 92.6999C105.635 92.6999 97.2924 101.042 97.2924 111.333C97.2924 121.624 105.635 129.966 115.925 129.966Z" fill="#BE1E2D"/>
<path d="M184.075 129.966C194.365 129.966 202.708 121.624 202.708 111.333C202.708 101.042 194.365 92.6999 184.075 92.6999C173.784 92.6999 165.442 101.042 165.442 111.333C165.442 121.624 173.784 129.966 184.075 129.966Z" fill="#BE1E2D"/>
<path d="M109.777 161.564L172.657 224.444L189.931 207.17L127.051 144.29L109.777 161.564Z" fill="#BE1E2D"/>
<path d="M127.039 224.445L189.92 161.564L172.645 144.29L109.765 207.171L127.039 224.445Z" fill="#BE1E2D"/>
</g>
<defs>
<clipPath id="clip0_1_2">
<rect width="300" height="300" fill="white"/>
</clipPath>
</defs>
</svg>
