<svg width="132" height="133" viewBox="0 0 132 133" fill="none" xmlns="http://www.w3.org/2000/svg">
<g id="Pan">
<g id="Group">
<path id="Vector_2" fill-rule="evenodd" clip-rule="evenodd" d="M57.8158 99.6294C65.8289 99.6294 73.3158 97.375 79.6754 93.4671C85.0833 90.1447 88.1952 92.875 90.5439 95.6031L106.546 114.189C108.331 116.261 111.5 116.379 113.434 114.445L114.45 113.43C116.384 111.496 116.265 108.327 114.193 106.542L95.6075 90.5395C92.8794 88.1908 90.1469 85.079 93.4715 79.6711C97.3794 73.3114 99.6338 65.8246 99.6338 57.8114C99.6338 49.7982 97.3838 42.3268 93.4825 35.9693C92.8202 34.8925 92.6118 33.6053 92.5658 32.3421C92.4847 30.0746 91.5175 27.7522 89.6974 25.9298C87.8772 24.1096 85.5526 23.1425 83.2873 23.0614C82.0241 23.0154 80.739 22.807 79.6601 22.1447C73.2982 18.25 65.8202 16 57.8158 16C46.2697 16 35.8158 20.6798 28.2478 28.2478C20.6798 35.8136 16 46.2675 16 57.8158C16 65.8202 18.25 73.3004 22.1513 79.6557C22.8136 80.7347 23.0219 82.0197 23.068 83.2829C23.1491 85.5504 24.1162 87.8728 25.9364 89.6952C27.7566 91.5154 30.0811 92.4825 32.3487 92.5636C33.6118 92.6097 34.8969 92.818 35.9759 93.4803C42.3333 97.3816 49.8114 99.6316 57.8158 99.6316V99.6294Z" fill="black"/>
<path id="Vector_3" fill-rule="evenodd" clip-rule="evenodd" d="M103.495 103.496C103.088 103.903 103.05 104.555 103.412 105.004L108.083 110.838C108.813 111.75 110.173 111.825 111 110.998C111.827 110.171 111.75 108.811 110.84 108.081L105.006 103.41C104.555 103.048 103.906 103.085 103.498 103.493L103.495 103.496ZM82.2959 82.296C68.7761 95.8157 46.8551 95.8157 33.3332 82.296C19.8134 68.7763 19.8134 46.8552 33.3332 33.3333C46.8529 19.8135 68.774 19.8135 82.2959 33.3333C95.8156 46.853 95.8156 68.7741 82.2959 82.296Z" fill="white"/>
<path id="Vector_4_2" d="M86.6467 57.8158C86.6467 73.7391 73.7388 86.647 57.8155 86.647C41.8923 86.647 28.9844 73.7391 28.9844 57.8158C28.9844 41.8926 41.8923 28.9847 57.8155 28.9847C73.7388 28.9847 86.6467 41.8926 86.6467 57.8158Z" fill="url(#paint0_linear_pan_qr)"/>
<path id="Vector_5" d="M72.243 52.671C72.0171 52.193 71.55 51.8969 71.0215 51.8969H61.8307L61.7868 51.8399L65.3504 38.1294C65.5127 37.5 65.2342 36.8794 64.6553 36.5855C64.0763 36.2916 63.4118 36.4298 62.9996 36.932L43.618 60.5526C43.2825 60.9605 43.2145 61.5109 43.4403 61.9868C43.6662 62.4649 44.1333 62.7609 44.6618 62.7609H53.8526L53.8965 62.818L50.3329 76.5285C50.1706 77.1579 50.4491 77.7785 51.0281 78.0723C51.2298 78.1754 51.4425 78.2259 51.6509 78.2259C52.039 78.2259 52.4162 78.0526 52.6838 77.7259L72.0653 54.1052C72.4009 53.6973 72.4689 53.1469 72.243 52.671Z" fill="white"/>
</g>
</g>
<defs>
<linearGradient id="paint0_linear_pan_qr" x1="57.8144" y1="86.6474" x2="57.8144" y2="28.9842" gradientUnits="userSpaceOnUse">
<stop stop-color="#FF0C1C"/>
<stop offset="1" stop-color="#FFAA00"/>
</linearGradient>
</defs>
</svg>
