<svg width="917" height="123" viewBox="0 0 917 123" fill="none" xmlns="http://www.w3.org/2000/svg">
<path d="M278 74C291.255 74 302 84.7449 302 98C302 111.255 291.255 122 278 122C264.745 122 254 111.255 254 98C254 84.7449 264.745 74 278 74Z" fill="url(#paint0_linear_267_24)"/>
<path d="M4.59972 8.05928C4.59972 5.64468 5.81409 4.4342 8.23645 4.4342H86.0522C88.1295 4.4342 89.1649 5.07767 89.1649 6.35823C89.1649 6.6513 89.1137 7.0017 89.0179 7.39033C88.3723 9.2634 87.8035 10.716 87.3114 11.7544L52.8167 83.6317C52.1712 84.9632 52.4205 85.6258 53.5582 85.6258C56.0828 85.6768 60.6271 85.6768 67.2103 85.6258H80.8624C82.3452 85.6258 83.4317 85.9826 84.1284 86.6961C84.8187 87.4097 85.1638 88.5055 85.1638 89.9899V102.337V114.76C85.1638 117.175 83.9495 118.385 81.5271 118.385H2.96351C0.688156 118.385 -0.276952 117.474 0.0681858 115.652C0.464455 113.875 0.860724 112.594 1.25699 111.804L35.6046 42.5899C36.0009 41.7553 36.199 41.0609 36.199 40.5194C36.199 39.4363 35.4576 38.8948 33.9748 38.8948H8.23006C5.8077 38.8948 4.59333 37.4677 4.59333 34.6071V8.05928H4.59972Z" fill="white"/>
<path d="M137.382 8.8047L190.718 114.091C191.064 114.779 191.236 115.378 191.236 115.869C191.236 117.551 189.479 118.385 185.97 118.385H162.973C160.302 118.385 158.621 118.232 157.93 117.933C157.042 117.481 156.026 116.206 154.888 114.098C153.207 110.938 150.459 109.415 146.656 109.511C139.632 109.612 133.4 109.612 127.961 109.511C121.78 109.511 115.593 109.511 109.413 109.511C106 109.511 103.629 110.944 102.293 113.798C101.257 116.015 100.363 117.334 99.6213 117.755C98.8799 118.175 97.1989 118.385 94.5784 118.385L82.7862 118.309C80.2169 118.309 76.3053 118.283 71.0643 118.232C67.5043 118.232 65.7211 117.372 65.7211 115.646C65.7211 115.053 65.9192 114.365 66.3155 113.575L119.358 8.79196C121.288 4.99486 124.279 3.09631 128.332 3.09631C132.384 3.09631 135.452 4.99486 137.382 8.79833V8.8047ZM133.822 73.4254C132.933 71.6479 131.623 69.0167 129.891 65.5127C129.348 64.9202 128.824 64.6271 128.332 64.6271C127.788 64.6271 127.271 64.9456 126.772 65.5891C125.781 67.4112 124.42 70.0998 122.694 73.6484C122.1 75.0309 122.496 75.8209 123.883 76.012H132.933C133.675 76.012 134.046 75.6425 134.046 74.9035C134.097 74.2664 134.02 73.7694 133.822 73.4254Z" fill="white"/>
<path d="M173.212 3.91813L221.877 3.62507C234.142 3.5295 244.208 7.28838 252.07 14.9017C259.931 22.515 263.862 32.4409 263.862 44.6668C263.862 56.7908 259.925 66.653 252.044 74.2472C244.164 81.8414 234.129 85.6321 221.928 85.6321H209.778C207.509 85.6321 206.371 86.6897 206.371 88.8113V114.767C206.371 117.181 205.157 118.392 202.728 118.392H173.513C171.084 118.392 169.87 117.181 169.87 114.767V7.54321C169.87 5.12862 170.982 3.91813 173.206 3.91813H173.212ZM211.197 38.1557H210.232C207.809 38.1557 206.569 39.2897 206.524 41.5578V50.9486C206.524 53.2167 207.611 54.3507 209.791 54.3507H211.203C216.693 54.3507 221.167 53.7582 224.631 52.5732C227.597 51.5411 229.08 49.3176 229.08 45.9155C229.08 42.5134 227.597 40.2963 224.631 39.2579C222.356 38.5188 217.882 38.1493 211.203 38.1493L211.197 38.1557Z" fill="white"/>
<path d="M362.754 0.146606C373.536 0.146606 383.634 2.82241 393.055 8.16765C402.476 13.5193 409.935 20.8268 415.419 30.0902C417.151 32.9507 417.618 34.8493 416.831 35.7858C416.186 36.5758 415.151 37.2893 413.712 37.9328L390.122 48.3621C386.804 49.8401 384.855 50.1842 384.261 49.3942C383.769 48.8526 383.002 47.8906 381.96 46.5081C376.962 40.2009 370.557 37.0409 362.747 37.0409C356.068 37.0409 350.367 39.3854 345.65 44.068C340.927 48.7507 338.568 54.4209 338.568 61.0785C338.568 67.7808 340.914 73.4764 345.618 78.1591C350.316 82.8417 356.03 85.1863 362.754 85.1863C371.158 85.1863 377.786 81.7332 382.637 74.8334C384.42 72.2723 385.775 71.0618 386.715 71.2084C387.706 71.3549 388.869 71.7244 390.205 72.3169L413.649 82.4467C414.486 82.8417 415.649 83.4342 417.138 84.2242C418.474 84.9633 418.346 86.8109 416.768 89.767C411.424 99.7248 403.921 107.587 394.251 113.359C384.58 119.124 374.086 122.01 362.76 122.01C345.746 122.01 331.32 116.092 319.477 104.261C307.634 92.4301 301.709 78.038 301.709 61.0785C301.709 44.17 307.647 29.7907 319.515 17.9343C331.384 6.07797 345.797 0.152979 362.766 0.152979L362.754 0.146606Z" fill="white"/>
<path d="M458.823 0C475.735 0 490.154 5.94411 502.074 17.8196C513.994 29.7014 519.951 44.068 519.951 60.9319C519.951 77.7959 514.007 92.2261 502.112 104.076C490.218 115.932 475.786 121.857 458.83 121.857C441.873 121.857 427.377 115.939 415.508 104.108C403.64 92.2771 397.702 77.8851 397.702 60.9255C397.702 43.966 403.652 29.6377 415.54 17.7814C427.435 5.925 441.86 0 458.823 0ZM458.823 36.8242C452.144 36.8242 446.443 39.1814 441.726 43.8832C437.003 48.5914 434.644 54.2743 434.644 60.9255C434.644 67.6278 436.99 73.3234 441.694 78.0061C446.392 82.6888 452.106 85.0333 458.83 85.0333C465.509 85.0333 471.203 82.6824 475.927 77.9742C480.65 73.2661 483.008 67.5832 483.008 60.9319C483.008 54.2743 480.644 48.5977 475.927 43.8896C471.203 39.1814 465.502 36.8305 458.83 36.8305L458.823 36.8242Z" fill="white"/>
<path d="M551.403 0C568.315 0 582.734 5.94411 594.654 17.8196C606.574 29.7014 612.531 44.068 612.531 60.9319C612.531 77.8405 606.587 92.2261 594.692 104.076C582.798 115.932 568.372 121.857 551.41 121.857C534.447 121.857 519.957 115.939 508.088 104.108C496.219 92.2771 490.282 77.8851 490.282 60.9255C490.282 44.017 496.226 29.6377 508.12 17.7814C520.015 5.925 534.44 0 551.403 0ZM551.403 36.8242C544.724 36.8242 539.023 39.1814 534.306 43.8832C529.583 48.5914 527.224 54.2743 527.224 60.9255C527.224 67.6278 529.57 73.3234 534.274 78.0061C538.972 82.6888 544.686 85.0333 551.41 85.0333C558.133 85.0333 563.783 82.6824 568.507 77.9742C573.23 73.2661 575.588 67.5832 575.588 60.9319C575.588 54.2743 573.224 48.5977 568.507 43.8896C563.783 39.1814 558.082 36.8305 551.41 36.8305L551.403 36.8242Z" fill="white"/>
<path d="M633.457 3.99453C635.93 3.99453 637.164 5.20502 637.164 7.61961V25.2162C637.164 27.5798 637.432 28.7648 637.982 28.7648C638.429 28.7139 639.094 27.7773 639.982 25.9553C641.861 21.8651 644.68 15.749 648.438 7.61961C649.576 5.20502 651.557 3.99453 654.376 3.99453H683.604C685.63 3.99453 686.077 5.20502 684.94 7.61961L662.167 56.6442C660.927 59.3073 660.978 61.5498 662.314 63.3719L686.275 114.837C686.723 115.773 686.422 116.633 685.387 117.423C684.543 118.111 683.604 118.455 682.568 118.455H653.417C652.132 118.455 650.918 117.245 649.78 114.83L639.541 92.7931C638.998 91.6081 638.455 91.143 637.911 91.3851C637.413 91.6335 637.17 92.4172 637.17 93.7487V104.325V114.824C637.17 117.238 635.936 118.449 633.463 118.449H604.312C601.889 118.449 600.675 117.238 600.675 114.824V7.61324C600.675 5.19864 601.883 3.98816 604.312 3.98816H633.463L633.457 3.99453Z" fill="white"/>
<path d="M711.617 3.99453C714.04 3.99453 715.254 5.20502 715.254 7.61961V114.843C715.254 117.258 714.04 118.468 711.617 118.468H682.389C679.967 118.468 678.753 117.258 678.753 114.843V7.61324C678.753 5.19864 679.961 3.98816 682.389 3.98816H711.617V3.99453Z" fill="white"/>
<path d="M805.239 3.9182C807.662 3.9182 808.876 5.12868 808.876 7.54328V115.875C808.876 117.997 808.186 119.054 806.799 119.054C806.505 119.054 806.179 119.003 805.834 118.908C803.852 118.366 802.421 117.799 801.532 117.207L762.513 92.2134C761.177 91.3788 760.512 91.6209 760.512 92.9524V114.104C760.512 116.965 759.029 118.392 756.064 118.392H727.43C724.956 118.392 723.723 117.188 723.723 114.767V6.95078C723.723 4.63175 724.662 3.62513 726.542 3.9182C728.472 4.26223 729.756 4.65723 730.402 5.1032L768.457 30.9757C769.396 31.6192 770.138 31.9377 770.681 31.9377C771.671 31.9377 772.164 31.0521 772.164 29.2746V7.53691C772.164 5.02037 773.595 3.81626 776.465 3.91183C781.808 4.01376 786.602 4.01376 790.859 3.91183H805.252L805.239 3.9182Z" fill="white"/>
<path d="M917 46.5464C917 44.1318 915.785 42.9214 913.363 42.9214H863.651C861.228 42.9214 860.014 44.1318 860.014 46.5464V75.6809C860.014 78.0955 861.228 79.306 863.651 79.306H875.711C870.438 83.9185 864.117 85.798 856.735 84.9315C855.616 84.7722 854.709 84.6576 854.006 84.5875C849.819 83.5809 846.112 81.4657 842.878 78.2484C838.181 73.5657 835.829 67.8701 835.829 61.1678C835.829 56.8802 836.813 53.0002 838.775 49.5217C839.855 47.6295 841.21 45.8584 842.872 44.2083C848.394 38.7038 855.163 36.4166 863.171 37.3595C864.884 37.6016 866.111 37.7418 866.84 37.78C867.818 37.9202 868.955 36.3019 870.253 32.9189L879.54 8.91952C880.102 7.4542 880.326 6.21823 880.224 5.20525C880.121 3.98839 878.44 2.97541 875.187 2.17267C868.47 0.446135 861.759 -0.127253 855.041 0.439763C840.219 1.50371 827.443 7.35226 816.731 18.03C813.733 21.018 811.113 24.1716 808.869 27.4781C802.107 37.3531 798.726 48.5724 798.733 61.1487H798.886C798.886 61.1487 798.886 61.1678 798.886 61.1742C798.886 78.1337 804.824 92.5257 816.693 104.357C828.562 116.187 843 122.106 860.014 122.106V122.074C865.37 122.061 870.726 121.335 876.088 119.87C877.514 119.481 878.907 119.042 880.275 118.57C880.3 120.927 881.508 122.112 883.905 122.112H913.133C915.555 122.112 916.77 120.902 916.77 118.487V77.2927C916.923 76.8404 917 76.3052 917 75.7V46.5656V46.5464Z" fill="white"/>
<defs>
<linearGradient id="paint0_linear_267_24" x1="278" y1="74" x2="278" y2="122" gradientUnits="userSpaceOnUse">
<stop stop-color="#FFAA00"/>
<stop offset="1" stop-color="#FF0C1C"/>
</linearGradient>
</defs>
</svg>
